<svg enable-background="new 0 0 283.181 283.181" height="316.227766" viewBox="0 0 283.18 283.18" width="316.227766" xmlns="http://www.w3.org/2000/svg"><g stroke="#000"><g stroke-width=".2888"><path d="m141.6 283.18c-78.072 0-141.6-63.516-141.6-141.6 0-78.068 63.523-141.58 141.6-141.58 78.079 0 141.59 63.51 141.59 141.58 0 78.087-63.507 141.6-141.59 141.6zm0-277.97c-75.197 0-136.38 61.189-136.38 136.37 0 75.204 61.183 136.38 136.38 136.38 75.182 0 136.37-61.181 136.37-136.38.001-75.182-61.188-136.37-136.37-136.37z"/><path d="m147.77 168.58-18.89-42.56-16.49 42.44-4.88-1.89 21.05-54.12 24 54.01z"/><path d="m170.86 168.58-18.91-42.56-16.5 42.44-4.87-1.89 21.04-54.12 23.99 54.01z"/></g><g stroke-width="1.1553"><path d="m222.9 216.79c1.636-.13 2.305-.276 3.449-.872 1.053-.519 1.94-1.271 2.651-2.172 2.815-3.573 2.311-8.532-1.147-11.26-3.501-2.762-8.513-2.107-11.339 1.489-.675.857-1.095 1.721-1.374 2.693-.358 1.216-.375 1.989-.193 3.893l-1.914-1.509c.06-1.636.152-2.315.535-3.43.341-1.005.839-1.921 1.507-2.771 1.659-2.099 4.248-3.537 6.914-3.83 2.534-.279 4.833.409 6.995 2.118 4.223 3.326 4.863 9.393 1.426 13.754-.654.832-1.49 1.557-2.5 2.18-1.069.691-1.628.923-3.03 1.278z"/><path d="m211.19 232.69-11.33-14.546 1.297-1.01 11.328 14.543z"/><path d="m191.72 244.71c-3.376 1.639-5.703 1.074-7.06-1.718-.971-2.006-.847-3.695.318-5.047.509-.566.953-.919 2.096-1.531l-8.668-5.697 1.628-.79 8.67 5.692.364-.178-3.891-8.014 1.479-.717 8.039 16.555zm-1.914-7.766-.436.178c-.595.254-.937.423-1.071.485-2.556 1.241-3.199 2.598-2.209 4.626.841 1.737 2.436 2.205 4.305 1.297l2.106-1.021z"/><path d="m153.24 251.94c1.32.982 1.925 1.314 3.169 1.619 1.133.294 2.304.316 3.429.104 4.479-.846 7.362-4.91 6.551-9.243-.83-4.392-5.027-7.188-9.538-6.341-1.067.2-1.957.575-2.807 1.128-1.063.678-1.589 1.253-2.699 2.807l-.454-2.397c1.12-1.198 1.638-1.652 2.66-2.233.921-.53 1.899-.895 2.959-1.098 2.632-.493 5.532.13 7.734 1.655 2.097 1.465 3.379 3.498 3.881 6.209 1.001 5.288-2.514 10.284-7.979 11.305-1.037.197-2.142.197-3.314 0-1.264-.178-1.833-.372-3.128-1.026z"/><path d="m133.23 256.26 1.322-11.818c.206-1.839-.014-3.043-.792-4.017-.841-1.134-1.989-1.763-3.331-1.912-2.827-.316-4.852 1.376-5.19 4.408l-1.382 12.287-1.631-.184 1.388-12.405c.412-3.616 3.409-6.146 6.849-5.757 3.771.42 6.201 3.531 5.769 7.354l-1.377 12.228z"/><path d="m101.33 249.25 5.915-15.726-4.069-1.531.581-1.537 5.602 2.109-6.484 17.266z"/><path d="m79.56 216.1 1.396.973-1.351 6.2 6.25 4.361 5.398-3.388 1.42.989-17.412 10.985zm4.832 12.512-5.151-3.588-1.685 7.903z"/><path d="m53.547 215.68c-2.418-2.875-2.436-5.272-.051-7.275 1.707-1.436 3.385-1.729 4.976-.919.683.35 1.131.699 2.006 1.652l3.416-9.81 1.173 1.396-3.42 9.808.264.316 6.84-5.737 1.052 1.255-14.116 11.858zm7.08-3.761-.272-.375c-.396-.511-.646-.807-.737-.919-1.831-2.181-3.303-2.477-5.038-1.024-1.482 1.25-1.544 2.911-.202 4.511l1.508 1.794z"/><path d="m56.235 89.883-9.805-14.454 17.989 7.062-.808 1.332-13.05-5.131-.034.046 8.947 13.109-15.844-1.78-.028.048 10.639 9.162-.816 1.356-14.666-12.662z"/><path d="m62.751 57.765 7.746 9.012c1.204 1.403 2.234 2.058 3.475 2.152 1.399.152 2.641-.254 3.667-1.131 2.154-1.859 2.291-4.485.308-6.8l-8.049-9.368 1.248-1.069 8.121 9.458c2.37 2.756 2.182 6.671-.45 8.927-2.867 2.465-6.793 2.127-9.295-.788l-8.011-9.321z"/><path d="m90.794 38.447c1.396-.632 3.337-1.254 4.501-1.46 1.111-.179 2.26-.151 3.338.104 2.557.584 4.601 2.462 5.908 5.352 1.188 2.626 1.336 4.884.479 7.177-.41 1.022-.931 1.802-1.627 2.539-.819.822-2.601 2.017-3.991 2.646l-3.326 1.505-7.606-16.81zm6.107 15.684 1.389-.629c5.084-2.302 6.64-5.781 4.607-10.279-2.09-4.603-5.854-5.799-11.051-3.451l-1.196.548z"/><path d="m144.27 26.833-.058 14.57c-.006 2.813-1.243 4.362-3.448 4.355-1.201-.003-2.197-.597-3.394-2.04l1.239-.99c1.016 1.059 1.482 1.354 2.219 1.359 1.204.006 1.733-.726 1.739-2.486l.055-14.777z"/><path d="m172.3 30.979-.373 1.602-7.001-1.639-1.349 5.774 6.995 1.636-.366 1.602-7.004-1.639-1.724 7.373 7.061 1.647-.384 1.599-8.657-2.025 4.199-17.942z"/><path d="m193.76 60.374-1.505-.805.609-6.328-6.731-3.597-4.969 4.007-1.532-.816 16.027-12.992zm-6.285-11.878 5.55 2.959.741-8.066z"/><path d="m217.82 77.382 10.917-10.525 1.142 1.189-13.757 13.251.785-21.849-10.86 10.459-1.14-1.185 13.751-13.254z"/><path d="m241.98 93.739c.789-2.014.851-2.937.264-4.09-.69-1.36-2.106-1.933-3.314-1.323-.761.387-1.291 1.092-1.618 2.011-.195.66-.275 1.464-.33 2.973-.054 2.039-.102 2.462-.511 3.926-.623 1.763-1.378 2.742-2.635 3.382-2.547 1.289-5.811.115-7.198-2.612-.629-1.23-.803-2.491-.547-3.74.214-1.066.419-1.636 1.255-3.111l1.495 1.058c-1.199 2.056-1.353 3.447-.604 4.919.97 1.91 3.026 2.713 4.755 1.833 1.574-.795 2.13-2.305 2.226-5.878.054-1.839.076-2.118.412-3.342.53-1.422 1.403-2.494 2.556-3.077 2.048-1.038 4.55-.071 5.718 2.234.485.948.62 1.997.46 3.232-.11.75-.266 1.159-.66 2.144z"/></g></g></svg>